<?xml version="1.0" encoding="UTF-8"?>
<svg version="1.1" viewBox="0 0 1792 1836" width="64" height="64" xmlns="http://www.w3.org/2000/svg">
<path transform="translate(0)" d="m0 0h1792v1836h-1792z"/>
<path transform="translate(1403,145)" d="m0 0 16 6 11 6 4 4h-8l2 1h9l13 5 17 9 16 12 10 8 15 13 9 8 7 8 9 10 8 7 6 4 3 6 1 4 7 13 10 17 9 20 6 17 6 19 7 31 7 47 3 31 1 17v31l-7 63-4 32-1 13-1 3-1 16-2 7-2 13-4 19-4 14-5 16-3 11-3 5-6 20-3 9-4 15-3 10-6 16-8 18h-2v2h-2l-1-6-6 15-7 14-12 27-1 6-8 16-10 18-3 6-2-1v3l-2 5-4 8-2-1-2 4 2 1-3 3-1-1-10 18v4l-6 12-7 11-6 7-1-3-14 19-14 22-2 4h-2l-2 6-5 5-9 13-2 4 1 2-3 5-3 1 1 3-4 1-8 12-9 12-1 4-4 2-11 14-12 14-8 6-14 16-5 9-9 10-7 8-4 5 5-4v3l-7 6h-3l-11 12-37 37-2 3-4 1-7 6-5 5-3 2-3 6-7 7 7-6 6-5 6-4 2 1-11 11-8 7-9 8-5 5-13 11-10 8-12 11-11 9-14 11-2-1 10-9 8-7 3-1h-3l-12 10-8 4-16 13-7 5-4 5-7 6 8-6 12-7 2 1-15 12-12 8-8 6-7 4-10 7-6 4-5 2-9 6-9 3-33 21-17 11v15l1 1 1 27v39l1 26v23l-1 57 1 57 1 36 1 2-66 1h-68l-73-1v-189l-24 7-64 16-14 4 17-2 14 1-4 2-27 6-25 4-54 4-53 3h-59l-5-1v-1h10l-23-3-42-8-19-5-27-10-34-14-9-2-3-3-11-6-26-16-19-14-9-7-9-8-7-8-4-5-5-4v-3l-2 1 1 2-3 3-5-4-1-5 5 1-7-7v-4l-4-1v-3l-3-1-4-7-5-8-6-12-8-13-9-19-5-10-6-15-10-32-6-28-4-31-2-26v-61l3-41 5-44 10-44 5-16 12-35 6-18 13-33 15-30 13-28 3-6 1 4-2 15 4-6 9-19 6-15 7-12 16-25 14-21 13-18 13-20 5-6 2 1v3l-1 10v4l-24 64-7 20-12 40-10 34-8 36-7 41-3 21-2 32v109l2 30 5 39 2 9 1-6h1l2 21 6 16 10 23 9 16 11 12 5 5 4 5v2l5 1 10 6-1 2-12-3 3 5 8 5 4 5 8 6 2-1v-2l3 1v3l4 1 2 1v2l4 2 11 8 7 4 15 7 24 7 18 4 37 4 20 1h14l41-3 36-4 48-7 22-4 13-4 6-3 32-9 15-6 27-9 19-5 9-4 7-2 8-1h-14l-12 1h-6l2-2 25-8 15-5 20-9 10-4 10-5 5-1 11-7 22-13 50-30 6-2 3-2 6 1 4-1 1-4-5-1-2-5 3 1 1-1 25-15 18-13 17-13 11-9 12-10 8-6 5-2 2 3 9-10 11-8 8-7 6-3v-2l-6-1h-3l9-6 7-4 13-10 17-16 10-9 6-4 6-2 6-5 7-8 16-16 11-9 10-9 1-3-9 6h-2l2-4 7-8 9-6 7-7 4-5 5-5 6-7 12-16 3-2-3 9-3 4 9-6 10-13 12-14 18-18 8-16 14-18 11-13 12-17 9-10 5-2 4-4 8-13 4-10 11-16 11-17 11-18 14-20 8-13 6-14 13-32 8-21 5-9 1 2-5 19-4 20 6-12 10-24 15-33 5-12 4-8 1-7 3-3 1-6h2l3-9 6-16 9-27 5-19 7-26 6-29 5-32 2-27v-56l-1-20-3-27-5-25-6-20-16-40-6-11-8-12-14-18-9-11-10-10-24-15-10-9-6-9-3-2z" fill="#FDFDFD"/>
<path transform="translate(506,289)" d="m0 0h827l121 1 1 2v203l-3 1h-304l-150 1-6 1v135l1 110v210l1 23 1 85h1v83l-3 3-27 18-16 10-14 7-19 12-22 13-21 12-21 11-10 4-10 5-6 4 15-3-1 2-15 5-20 8-14 5h-4v-597l1-79v-87l-150-1h-308l-1-1-1-89-1-32h-1l-2-84z" fill="#FDFDFD"/>
<path transform="translate(128,1021)" d="m0 0h1v10l-3 40-2 10-4 19-7 52-5 47-1 15v56l2 28 5 51 8 40 10 37 11 28 18 32 9 11 6 5 4 6v2l4 2 3 3v2l4 2v2l3 1 1 4 1-2 4 1 3 3-1 2-7-1 2 4 11 9 15 13 10 8 13 10 6 3 1-2 2 4 5 1 10 7 25 12 26 10 27 7 24 5 22 4 2 1 12 2 15 2v1h-13l-18-2-22 1 25 5 26 4 83 8 25 2 64 3 25 2 5 2v3l-22 8-21 9-21 7-20 5-18 5-31 6-27 3-16 1h-32l-36-4-30-5-44-11-31-10-2-3 10 3-4-2-17-8-16-6-17-9-18-11-9-5-1-2 10 1-3-3-16-11-12-9-7-8-4-4-3-6-2-1 1 6-5-2-1-3-3-1v-2l-4-2-2-5-3-3v-3l-4-2-4-6v-2h-2l-4-6-2-1-4-7-3-1-3-8-6-12-5-9-10-19-3-8-5-12-8-20-5-15-3-12-5-25-6-36-1-8v-54l4-53 6-54 5-29 5-23 6-25 3-11 2-1v4l7-25 9-27 9-23 5-18z" fill="#FDFDFD"/>
<path transform="translate(1491,91)" d="m0 0h9l16 4 35 12 19 9 17 12 14 11 10 9 7 11 9 7 6 4 4 3v2h2l11 14 9 12 12 19 9 16 9 25 6 17 7 21 7 27 4 32 2 34v52l-2 35-4 30-9 38-6 20-8 20-8 18-3 1-3-1v-10l3-26 1-38v-59l-2-45-2-22-8-53-8-36-12-36-7-19-5-13-11-13-13-26-9-14-14-18-10-13-12-16-9-10-8-8-20-14-12-9-15-10-8-5z" fill="#FDFDFD"/>
<path transform="translate(1607,479)" d="m0 0h1v69l-1 22-5 33-7 34-6 29-8 29-7 22-8 27-8 24-6 13-8 18-15 27-2-1v5h-3l-5 11v6l-13 26-10 19-15 28-14 24-9 14-6 10-6 8-8 13-2-3-2 5-3-1-2 4-6 9-7 10-6 11-1 1-8 15-6 10-8 12-12 16-18 22-11 13-5 5-5 2-1-1-9 12-6 5h4l-2 4-11 13-14 16-9 10-25 25-5 4-6 7-5 4-5 5-7 6 2-4 1-4 5-2 3-4-1-3 40-40 5-6 2 1 7-6-2-1-2 4-2-1 10-11 9-11 5-8 7-9 7-7 4-5 6-4 12-14 8-10 5-6 2-1 2-5 9-12 7-10h3l-1-4 5-2 1-4v-3l7-11 7-9h2l2-6 2-1 3-6 7-11 8-12 12-16 1 3 5-6 9-15 5-10-1-2 11-19 3-1-1-3 3-3 1 1 5-11-1-2 3-4 1 2 7-14 9-16 5-13 2-6 16-36 3-5 4-11 2-1v7h2v-2h2l3-9 7-16 3-9 4-14 5-18 6-18 3-8 3-7 3-10 5-17 5-22 3-17 1-5 1-3 1-18 1-3 3-26 5-44 4-36z" fill="#464646"/>
<path transform="translate(991,497)" d="m0 0h7l1 1v258l-1 263-1 107h-1l-1 6h-1l-1-156-1-33v-212l-1-98z" fill="#474747"/>
<path transform="translate(988,496)" d="m0 0h10v1l-6 1v135l1 110v210l1 23 1 85h1v83l-3 3-3 1-1-6-1-190-1-349v-106z" fill="#D9D9D9"/>
<path transform="translate(173,1092)" d="m0 0 2 2-1 18-3 41v61l3 35 4 27 5 23 8 25 5 15 7 16 9 17 6 11 8 14 3 9-2 3-5-8-10-19-6-10v-3h-2l-13-25-4-11-7-24-3-10-4-18-2-15-1-16-2 1-1-8 1 16 2 13-2-1-3-7-4-22-2-26v-53l3-46 2 1 1 31 1-5v-22l2-14h1l1-6h2z" fill="#454545"/>
<path transform="translate(506,289)" d="m0 0h827v1l-48 1v1h-790v-1l11-1z" fill="#DADADA"/>
<path transform="translate(276,956)" d="m0 0 2 2-1 11-6 40-2 32v109l2 30 5 39v5l-2-4-1-7-3-4-2-9-3-9-1-10-3-1-3-12-2-13-1-14-1-39 1-36 2-24 5-15 2-9 1-6h2v-8l2-8 3-19z" fill="#DADADA"/>
<path transform="translate(1062,1368)" d="m0 0 3 1-5 4-11 8-10 4-7 5-5 2-5 5-12 9-11 8-1 249-1 33h-67v-1h66l-2-1-1-37-1-59 1-55v-23l-1-33v-59l-2-1v-15l18-12 22-14 13-8 8-3z" fill="#474747"/>
<path transform="translate(1452,961)" d="m0 0 2 1-2 6-6 8-8 13-2-3-2 5-3-1-2 4-6 9-7 10-6 11-1 1-8 15-6 10-8 12-12 16-18 22-11 13-5 5-5 2-1-1-9 12-6 5h4l-2 4-11 13-14 16-9 10-25 25-5 4-6 7-5 4-5 5-7 6 2-4 1-4 5-2 3-4-1-3 40-40 5-6 2 1 7-6-2-1-2 4-2-1 10-11 9-11 5-8 7-9 7-7 4-5 6-4 12-14 8-10 5-6 2-1 2-5 9-12 7-10h3l-1-4 5-2 1-4v-3l7-11 7-9h2l2-6 2-1 3-6 7-11 8-12 12-16 1 3z" fill="#4D4D4D"/>
<path transform="translate(61,1208)" d="m0 0h1v44l1-7h2l2 17-1 19-2 29v54l5 32 2 16-3 3h-1l-2-13-2-15-1-1v10l2 19-4-4-3-12-3-26-1-17v-69l1-6 2-30 4-39z" fill="#484848"/>
<path transform="translate(114,1137)" d="m0 0h1l-1 16-2 21h1v19h-1l-1-10-1 15 2 7v81l2 28 4 24 7 32 5 23 6 23 3 15 4 9 2 11 2 1 4 8 2 3 1 7h-3l-10-18-11-29-9-34-8-40-6-62-1-17v-56l3-35z" fill="#464646"/>
<path transform="translate(787,496)" d="m0 0 3 1v87l-1 79-1 596h-1l-1-605-1-1-1-81v-73z" fill="#454545"/>
<path transform="translate(1522,427)" d="m0 0h1l1 7v14l-3 26-6 33-9 36-5 17-6 21-8 23-3 5-3 8-4 10h-1l-2 7-7 18-7 14h-1v-9l1-5 2-4 11-28 12-36 10-35 2-2 3-12h2l1-9 5-18 2-6 5-29 4-24 2-21z" fill="#474747"/>
<path transform="translate(989,1412)" d="m0 0 2 1v14l1 1 1 27v39l1 26v23l-1 57 1 57 1 36 1 2h-6l-1-4-1-34v-239z" fill="#DADADA"/>
<path transform="translate(1594,594)" d="m0 0h1v13l-1 3-1 16-2 7-2 13-4 19-4 14-5 16-3 11-3 5-6 20-3 9-4 15-3 10-6 16-8 18h-2v2h-2l-1-6-6 15-7 14-4 9-1-3 10-24 7-16 5-10h2l9-21 5-16 6-18 7-26 3-10 8-28 7-28z" fill="#DADADA"/>
<path transform="translate(785,1509)" d="m0 0 4 2v184l-4 1-1-2v-184z" fill="#454545"/>
<path transform="translate(325,291)" d="m0 0h1l1 50 1 11h1l1 54 1 90-7 1-1-5 1-84z" fill="#464646"/>
<path transform="translate(1678,471)" d="m0 0h1v99l4 1 5-3h2l2-9 2-5 4-14 2-8h1l1 7-8 28-8 20-8 18-3 1-3-1v-10l3-26 1-38h1z" fill="#D9D9D9"/>
<path transform="translate(61,1208)" d="m0 0h1v27l-1 20-1 69h-1l-2-12v4h-2v32h-1v-67l2-30 4-39z" fill="#D5D5D5"/>
<path transform="translate(1319,1138)" d="m0 0h3l-2 5-13 14-7 9-14 15-23 23-5 4-6 7-5 4-5 5-7 6 2-4 1-4 5-2 3-4-1-3 40-40 5-6 2 1 7-6 3-5h3l1-4 8-7 3-4z" fill="#626262"/>
<path transform="translate(128,1021)" d="m0 0h1v10l-3 40-2 10-3 13h-1v-12h2l-1-13-1-2-5 3-2 3-2-2 1-5 2-3 2-1-1-4 2-10 4-12 3-11z" fill="#DADADA"/>
<path transform="translate(280,1222)" d="m0 0 2 4 5 14 10 25 12 27 3 5v2h2l2 5h-5l-7-9-9-17-12-29-2-6-1-11z" fill="#434343"/>
<path transform="translate(186,1322)" d="m0 0 6 5 5 14 6 14 9 17 6 11 8 14 3 9-2 3-5-8-10-19-6-10v-3h-2l-13-25-4-11-2-6z" fill="#585858"/>
<path transform="translate(341,735)" d="m0 0 2 1v3l-1 10v4l-5 13-3 3h-2l-1-2-10 1 2-5 5-10 8-12z" fill="#D8D8D8"/>
<path transform="translate(325,290)" d="m0 0h6l-2 1 1 15v100h-1l-1-32h-1z" fill="#DADADA"/>
<path transform="translate(139,1013)" d="m0 0h2l-1 4-3 5-2 12-1 2-2 16-3 13-2 6h-1v-11l3-41 5-4z" fill="#343434"/>
<path transform="translate(1598,362)" d="m0 0 2 4 1 17 2 1 4 19 2 22v27l-2 16h-1l-1-23v-24l-1-5h-1l-1-15h-1l-1-12h-1z" fill="#424242"/>
<path transform="translate(322,1689)" d="m0 0 11 1 8 3 26 4h12l36 4v1l-7 1h-31l-15-2-11-2v-2l-10-1-5-1-1-2-12-2z" fill="#464646"/>
<path transform="translate(1403,145)" d="m0 0 16 6 11 6 4 4h-8l2 1h9l5 3-4 2-2-1h-6-1l-3 1-10-5-5-6-5-7-3-2z" fill="#E0E0E0"/>
<path transform="translate(336,1615)" d="m0 0h7l13 2 34 6 6 2 12 2 15 2v1h-13l-18-2h-22v-1l5-1-13-4-18-3-8-3z" fill="#DEDEDE"/>
<path transform="translate(74,1428)" d="m0 0 2 4 2 9 5 16 8 21 5 13 3 5-1 4-1-3-2 3-4-8-6-17-3-8-3-7-2-9-3-7-1-9 1-2h-2l-1 3 1-5z" fill="#474747"/>
<path transform="translate(1156,1295)" d="m0 0 1 2-8 7-12 10-1 3-11 9-14 7-10 8-2-1 10-9 4-5 11-8 11-9 7-3z" fill="#1E1E1E"/>
<path transform="translate(393,1531)" d="m0 0 7 1 15 5h3l-17-5 4-1 28 7 43 8 7 1v1h-12l-7-2-10-1v1l-10-1-26-5-17-5-8-3z" fill="#E5E5E5"/>
<path transform="translate(1062,1368)" d="m0 0 3 1-5 4-11 8-10 4-7 5-5 2-5 5-12 9h-3l3-5 4-5 18-11 11-7 8-3z" fill="#4E4E4E"/>
<path transform="translate(704,1531)" d="m0 0 14 1-4 2-19 4-11 1-12 2h-7l1-2h7v-2h-8v-1l14-3 16-1z" fill="#FAFAFA"/>
<path transform="translate(1339,856)" d="m0 0 1 2-3 8h2v-3h2l-2 5-8 6-8 10-10 14-5 6-2-1 2-6 13-19 2-4 4-1v-2l6-5 5-9z" fill="#090909"/>
<path transform="translate(1229,1233)" d="m0 0 2 1-11 11-8 7-9 8-5 5-13 11v-3l1-4 11-10 8-7 3-3 5-3 8-8z" fill="#505050"/>
<path transform="translate(1478,220)" d="m0 0 5 5 7 11 8 18 4 10h-2l1 4-3-3-7-14-9-20-4-8z" fill="#2B2B2B"/>
<path transform="translate(240,1657)" d="m0 0 9 1 6 1 15 6 13 6 5 2-3 1-12-4 1 2-5-1-18-7-11-6z" fill="#515151"/>
<path transform="translate(448,1540)" d="m0 0 14 2 22 4 23 3v1h-11v1h-14l-30-4-2-3 14 1 9 2h3l-28-5z" fill="#4E4E4E"/>
<path transform="translate(1244,1215)" d="m0 0 4 1-6 6h-4l1 3-3 3-3 5-5 2-9 6-8 8-2-1 8-8 3-6 6-4 5-5 6-5 2 1 2-4z" fill="#1B1B1B"/>
<path transform="translate(1607,479)" d="m0 0h1v69l-1 14h-1l-2-38 1-16 1-9z" fill="#8F8F8F"/>
<path transform="translate(1120,1327)" d="m0 0 2 1-15 12-12 8-8 6-7 4-10 7-6 4-2-2 14-9 12-9 8-7 6-3 12-9z" fill="#B9B9B9"/>
<path transform="translate(162,1117)" d="m0 0 2 1v25l-1 31-2 1-1 19h-1v-31z" fill="#DADADA"/>
<path transform="translate(1678,471)" d="m0 0h1v99l-1 1-1 7h-1v-47h1z" fill="#DADADA"/>
<path transform="translate(350,731)" d="m0 0h4l-1 5-4 8-6 9-1-2-2-1 1-4 1-7v-3l1-3z" fill="#4D4D4D"/>
<path transform="translate(1508,851)" d="m0 0 2 3-6 13-12 23-4 7-2-4 15-29z" fill="#D6D6D6"/>
<path transform="translate(1182,1272)" d="m0 0 2 1-13 13h-2l-2 5-10 9-11 9-8 6-2-1 10-9 8-7 3-1 1-4 11-9z" fill="#E4E4E4"/>
<path transform="translate(139,1013)" d="m0 0h2l-1 4-3 5-2 12-2 9-2-3-1-13h-1v-8l5-4z" fill="#5D5D5D"/>
<path transform="translate(93,1114)" d="m0 0 1 2-3 20-4 16-4 10h-1l1-11 6-25 3-11z" fill="#DADADA"/>
<path transform="translate(189,1010)" d="m0 0 2 3-1 8-9 37-1 5h-1v-10l2-12 5-20z" fill="#434343"/>
<path transform="translate(1607,420)" d="m0 0h1l1 5v27l-2 16h-1l-1-23v-19z" fill="#414141"/>
<path transform="translate(1464,937)" d="m0 0v3l-6 12-7 11-6 7-1-2 3-8h2l1-4 3-5h2l1-4 5-9z" fill="#C8C8C8"/>
<path transform="translate(1673,540)" d="m0 0 2 4 1 4v21l-3 26h-1v-15z" fill="#464646"/>
<path transform="translate(1602,391)" d="m0 0h1l1 20h1l1 18v16h-1l-3-25-3-22v-4h2z" fill="#0B0B0B"/>
<path transform="translate(498,1698)" d="m0 0h7l-1 2-12 2-13 1h-23l-9-1v-1l23-1h11z" fill="#464646"/>
<path transform="translate(165,1089)" d="m0 0h2v12l-2 40h-1l-1-23-1-1 1-18z" fill="#464646"/>
<path transform="translate(426,1539)" d="m0 0 17 1 40 7v1h-12l-7-2-10-1v1l-10-1-18-5z" fill="#B8B8B8"/>
<path transform="translate(704,1531)" d="m0 0 14 1-4 2-19 4h-11l2-3 9-2v-1z" fill="#C2C2C2"/>
<path transform="translate(1700,532)" d="m0 0h1l1 7-8 28-2 1-1-7 3-7 4-14z" fill="#DBDBDB"/>
<path transform="translate(327,1688)" d="m0 0 9 1 24 5 13 2 2 2-16-1-18-3-8-3-6-1z" fill="#141414"/>
<path transform="translate(114,1137)" d="m0 0h1l-1 16-2 21h1v19h-1l-1-10-1 15-2 1v-11z" fill="#464646"/>
<path transform="translate(1229,1233)" d="m0 0 2 1-11 11-8 7-10 9-1-3 7-6 7-8 8-7z" fill="#ddd"/>
<path transform="translate(123,1548)" d="m0 0 4 1 3 4v3l3 1 3 4v2h2l3 5-2 4-7-8-7-11v-2h-2z" fill="#404040"/>
<path transform="translate(140,1443)" d="m0 0 1 3h2v6h4l4 8 2 3 1 7h-3l-10-18-2-7z" fill="#404040"/>
<path transform="translate(1442,681)" d="m0 0 1 2-5 19-1 6-2-2-2 2h-2l1-6 8-18z" fill="#EFEFEF"/>
<path transform="translate(135,1419)" d="m0 0 2 4 3 10 3 7 2 12h-2v-6l-5-2-3-8 2-1-1-5-1-3z" fill="#666"/>
<path transform="translate(249,1425)" d="m0 0h3v2l3 1 2 7 1 4-4-3v-3l-2 1 1 2-3 3-5-4-1-5 7 1-2-4z" fill="#D8D8D8"/>
<path transform="translate(744,1526)" d="m0 0 3 1-15 4-5 1h-16l-4-2 30-3z" fill="#4E4E4E"/>
<path transform="translate(1317,1139)" d="m0 0 1 3-7 8-5 4-1 3-5 3-3 1-2 4-2-1 10-11 7-8h4l2-4z" fill="#464646"/>
<path transform="translate(1198,1026)" d="m0 0 1 2-4 8-5 2-6 4h-2l2-4 7-8z" fill="#F1F1F1"/>
<path transform="translate(1098,1342)" d="m0 0 2 1-5 5-8 6-7 4-10 7-6 4-2-2 14-9 12-9 5-2z" fill="#D7D7D7"/>
<path transform="translate(273,1196)" d="m0 0h1l4 16 2 10-1 11h-1l-3-14-2-17z" fill="#464646"/>
<path transform="translate(1411,152)" d="m0 0 5 1h2l7 1 9 6v1h-7l-7-2-9-6z" fill="#A4A4A4"/>
<path transform="translate(162,1474)" d="m0 0 3 4 3 8 2 1 4 9-1 2-5-5-7-14z" fill="#eee"/>
<path transform="translate(1440,699)" d="m0 0 2 2-1 9-6 12-2 1 4-21z" fill="#3E3E3E"/>
<path transform="translate(1319,1138)" d="m0 0h3l-2 5-13 14-5 5v-2l-2-1 2-2h3l1-4 8-7 3-4z" fill="#DADADA"/>
<path transform="translate(1676,531)" d="m0 0h1l1 29h1v10l-1 1-1 7h-1z" fill="#E0E0E0"/>
<path transform="translate(1339,856)" d="m0 0 1 2-3 8h2v-3h2l-2 5-9 6-3-3 6-5 5-9z" fill="#424242"/>
<path transform="translate(1360,826)" d="m0 0 1 2-2 4 2 2-6 8-5 5-2-1 4-8 6-9z" fill="#3A3A3A"/>
<path transform="translate(110,1528)" d="m0 0h2l1 4 3-1 5 9 2 4-1 4-3-3-1-3-3-3-5-10z" fill="#3C3C3C"/>
<path transform="translate(1236,982)" d="m0 0 1 2-4 8-3 4-4 4-4 1 3-5 8-11z" fill="#EDEDED"/>
<path transform="translate(152,1581)" d="m0 0 9 4 2 1 1 8-5-2-1-3-3-1v-2l-4-2z" fill="#DBDBDB"/>
<path transform="translate(1598,362)" d="m0 0 2 4 1 17 2 1 1 9h-1l-1 8h-1l-1-12h-1z" fill="#464646"/>
<path transform="translate(97,1096)" d="m0 0h1l1 7-5 18h-1v-6l-1-3z" fill="#464646"/>
<path transform="translate(272,1669)" d="m0 0 10 3 12 3 6 3 1 2-9-2-18-6z" fill="#D8D8D8"/>
<path transform="translate(840,1240)" d="m0 0 2 1-8 3-11 4-2-1-7 1 4-3 6-2h5l7-2z" fill="#ddd"/>
<path transform="translate(1602,391)" d="m0 0h1v29h-1l-3-22v-4h2z" fill="#111"/>
<path transform="translate(64,1189)" d="m0 0h1l-2 39h-1l-1-25z" fill="#464646"/>
<path transform="translate(124,1078)" d="m0 0h1l-1 8-1 14-2 4-2 2 1-12z" fill="#464646"/>
<path transform="translate(1320,880)" d="m0 0 1 3-7 10-4 6-1 4h-3l2-6z" fill="#404040"/>
<path transform="translate(1401,762)" d="m0 0 1 4-1 7-9 13-1-3 8-16z" fill="#424242"/>
<path transform="translate(450,1544)" d="m0 0 14 1 12 3v1l-15-1-9-1z" fill="#515151"/>
<path transform="translate(1478,220)" d="m0 0 5 5 5 8-1 6-3-4-6-12z" fill="#565656"/>
<path transform="translate(1182,1272)" d="m0 0 2 1-13 13h-2l-1 3-8 4 6-7 11-9z" fill="#464646"/>
<path transform="translate(116,1052)" d="m0 0 1 3-1 6v3l-4 4-1 6h-3l1-5 6-16z" fill="#F3F3F3"/>
<path transform="translate(701,1528)" d="m0 0 4 1-1 3-17 2h-5l4-2z" fill="#252525"/>
<path transform="translate(1403,145)" d="m0 0 16 6v3h-3l-9-4-4-3z" fill="#D1D1D1"/>
<path transform="translate(336,1615)" d="m0 0h7l13 2 2 3-14-1-8-3z" fill="#DBDBDB"/>
<path transform="translate(325,1496)" d="m0 0 10 2 9 5 2 2-3 1-16-8z" fill="#444"/>
<path transform="translate(223,1396)" d="m0 0 3 1 3 9-2 3-5-8-1-3z" fill="#3D3D3D"/>
<path transform="translate(394,1371)" d="m0 0 7 1 9 3-3 1-1 2-12-5z" fill="#242424"/>
<path transform="translate(1156,1295)" d="m0 0 1 2-8 7-9 7-3-2 11-8z" fill="#333"/>
<path transform="translate(1022,1394)" d="m0 0v3l-12 9h-3l3-5 4-4 6-1z" fill="#6D6D6D"/>
<path transform="translate(1184,1271)" d="m0 0 3 1-7 8-8 7-4 2 1-3 8-7z" fill="#D6D6D6"/>
<path transform="translate(61,1208)" d="m0 0h1v20l-3 1 1-17z" fill="#C6C6C6"/>
<path transform="translate(1244,1215)" d="m0 0 4 1-6 6h-4l1 3-2 1-3-4 3-2 2 1 2-4z" fill="#464646"/>
<path transform="translate(161,1484)" d="m0 0 4 2 5 8v2l5 2v3l-6-4-9-11z" fill="#313131"/>
<path transform="translate(244,1430)" d="m0 0 4 1 5 5-3 3-5-4z" fill="#E4E4E4"/>
<path transform="translate(329,1322)" d="m0 0 5 2 8 5-1 2-9-2-2-5-2-1z" fill="#E5E5E5"/>
<path transform="translate(251,1659)" d="m0 0 7 1 8 3 1 3-8-1-8-5z" fill="#0D0D0D"/>
<path transform="translate(1695,554)" d="m0 0 2 1-3 12-2 1-1-7z" fill="#ddd"/>
<path transform="translate(1011,1398)" d="m0 0m-1 1m-2 1 4 2h-2l-1 3-5 1-1 3h-2l-1-4z" fill="#2A2A2A"/>
<path transform="translate(240,1657)" d="m0 0 9 1 4 1v2l2 1v2l-6-1-9-5z" fill="#636363"/>
<path transform="translate(943,1234)" d="m0 0 4 1v3l-5 2-5-1v-2z" fill="#F3F3F3"/>
<path transform="translate(684,1536)" d="m0 0m-7 1h7v2l-12 2h-7l1-2z" fill="#DADADA"/>
<path transform="translate(193,1522)" d="m0 0 2 4 1-2 4 1 3 3-1 2-7-1h-4l2-1-1-3z" fill="#E4E4E4"/>
<path transform="translate(1028,1387)" d="m0 0m-1 1 1 2-5 5-6 3h-3v-2z" fill="#373737"/>
<path transform="translate(1249,1214)" d="m0 0 2 1-6 7-8 7-2 1 2-4 1-4 5-2z" fill="#DCDCDC"/>
<path transform="translate(1446,970)" d="m0 0 2 1-2 5-8 13-1-2 5-11 3-3z" fill="#DADADA"/>
<path transform="translate(93,1114)" d="m0 0 1 2-2 12-1 5-2-4 2-10z" fill="#9C9C9C"/>
<path transform="translate(1286,926)" d="m0 0v3l-4 6-5 5-2 1 2-4 7-9z" fill="#EBEBEB"/>
<path transform="translate(140,1443)" d="m0 0 1 3h2v6h2l1 6-4-4-3-9z" fill="#292929"/>
<path transform="translate(1319,886)" d="m0 0 1 3-8 10-1 2h-2l2-4 5-8z" fill="#101010"/>
<path transform="translate(306,848)" d="m0 0 1 3-4 13h-1v-8l2-6h2z" fill="#DBDBDB"/>
<path transform="translate(163,1588)" d="m0 0 3 1 3 7-4 1-2-3z" fill="#292929"/>
<path transform="translate(679,1533)" d="m0 0 6 1v1l-12 2h-8v-1z" fill="#D0D0D0"/>
<path transform="translate(1442,681)" d="m0 0 1 2-3 10h-2l-1 3-1-4z" fill="#DADADA"/>
<path transform="translate(1120,1327)" d="m0 0 2 1-9 7-4-1 9-6z" fill="#EBEBEB"/>
<path transform="translate(1435,162)" d="m0 0 5 1 2 3-5 1-1-1h-6l-1-3z" fill="#DBDBDB"/>
<path transform="translate(81,1162)" d="m0 0h1v10l-3 5-1-3z" fill="#DADADA"/>
<path transform="translate(181,1047)" d="m0 0h2l-2 11-1 5h-1v-10z" fill="#464646"/>
<path transform="translate(1198,1026)" d="m0 0 1 2-4 8-4-4 3-3z" fill="#D5D5D5"/>
<path transform="translate(117,1536)" d="m0 0h2l4 8-1 4-3-3-1-3-2-2h2z" fill="#464646"/>
<path transform="translate(168,1486)" d="m0 0 2 1 4 9-1 2-4-4-2-7z" fill="#E0E0E0"/>
<path transform="translate(382,1366)" d="m0 0 7 1 5 2v2l-3 1-8-4z" fill="#323232"/>
<path transform="translate(303,1286)" d="m0 0 4 2 3 6 3 5-1 2-6-8-2-5z" fill="#D7D7D7"/>
<path transform="translate(279,1222)" d="m0 0h1l1 14v5l-1-2h-2z" fill="#DADADA"/>
<path transform="translate(1328,872)" d="m0 0 2 1-2 4-2 2h-3l-2 1 2-6 4-1z" fill="#1F1F1F"/>
<path transform="translate(255,1663)" d="m0 0 9 2 1 3-6-1-6-2z" fill="#505050"/>
<path transform="translate(396,1625)" d="m0 0 5 1v2h-9l-7-1v-1z" fill="#EAEAEA"/>
<path transform="translate(135,1419)" d="m0 0 2 4 3 10-1 4-4-10z" fill="#DADADA"/>
<path transform="translate(1485,899)" d="m0 0 1 2-6 11-1-4 4-8z" fill="#A5A5A5"/>
<path transform="translate(1339,856)" d="m0 0 1 2-4 9-4 3 1-4 5-9z" fill="#E8E8E8"/>
<path transform="translate(1166,1288)" d="m0 0 2 2-7 6-4-2 6-3z" fill="#BEBEBE"/>
<path transform="translate(857,1235)" d="m0 0 1 2-11 4h-5l3-2z" fill="#5B5B5B"/>
<path transform="translate(1229,1226)" d="m0 0 2 1-2 4h-2l-2 4-3-1 6-7z" fill="#292929"/>
<path transform="translate(1193,1035)" d="m0 0 1 3-7 6-1-3h2v-3z" fill="#171717"/>
<path transform="translate(1542,245)" d="m0 0 5 1 3 6-2 2-4-4z" fill="#DBDBDB"/>
<path transform="translate(1219,1235)" d="m0 0 2 4-10 10-2-1 8-8z" fill="#303030"/>
<path transform="translate(1320,880)" d="m0 0 1 3-7 10h-2l2-5z" fill="#4B4B4B"/>
<path transform="translate(254,866)" d="m0 0 3 2-1 4v4l-3 3z" fill="#464646"/>
<path transform="translate(1354,836)" d="m0 0 1 2-4 8h-3l4-8z" fill="#686868"/>
</svg>
